<?xml version="1.0" encoding="UTF-8"?>
<!DOCTYPE svg PUBLIC "-//W3C//DTD SVG 1.1//EN" "http://www.w3.org/Graphics/SVG/1.1/DTD/svg11.dtd">
<!-- Creator: CorelDRAW 2020 (64-Bit) -->
<svg xmlns="http://www.w3.org/2000/svg" xml:space="preserve" width="135.467mm" height="135.467mm" version="1.1" style="shape-rendering:geometricPrecision; text-rendering:geometricPrecision; image-rendering:optimizeQuality; fill-rule:evenodd; clip-rule:evenodd"
viewBox="0 0 13546.66 13546.66"
 xmlns:xlink="http://www.w3.org/1999/xlink"
 xmlns:xodm="http://www.corel.com/coreldraw/odm/2003">
 <defs>
  <style type="text/css">
   <![CDATA[
    .str0 {stroke:white;stroke-width:20;stroke-miterlimit:22.9256}
    .fil2 {fill:#323232}
    .fil0 {fill:#FF8381}
    .fil1 {fill:white}
   ]]>
  </style>
 </defs>
 <g id="Layer_x0020_1">
  <metadata id="CorelCorpID_0Corel-Layer"/>
  <rect class="fil0 str0" x="-0" y="-0.01" width="13546.67" height="13546.67"/>
  <path class="fil1" d="M10800.55 4123.14l0 0.05c0,-0.01 0,-0.04 0,-0.05zm0 0l0 0.05c-6.58,187.07 -14.32,388.33 -23.23,603.79 -34.04,823.14 -51.06,1440.95 -51.06,1851.62 0,387.04 4.25,966.7 12.76,1738.98 7.23,655.75 11.39,1171.32 12.46,1548.91l-1773.32 0c-540.82,-622.68 -1230.06,-1409.07 -2068.48,-2359.86l0 -2018.62c621.99,707.12 1323.98,1500.2 2106.14,2378.92 87.22,92.67 168.07,172.63 242.54,239.86 -29.42,-1425.26 -65.25,-3640.37 -76,-5020.35l1644.75 0c-3.09,275.51 -11.94,621.08 -26.56,1036.7z"/>
  <path class="fil0" d="M10800.55 4123.14l289.55 6780.08 -405.6 0 -1357.96 0c-400.68,-461.34 -882.85,-1012.55 -1446.78,-1653.89 -197.21,-224.3 -404.45,-459.63 -621.69,-705.98l0 -14.3 0 -1280.85 0 -723.47c49.29,56.03 99.07,112.6 149.36,169.69 360.59,409.49 747.01,846.74 1159.29,1311.64 214.84,242.26 436.67,492.02 665.54,749.3 43.72,49.16 87.71,98.59 131.96,148.29 87.22,92.67 168.05,172.63 242.53,239.85 29.77,-148.99 42.54,-488.8 42.54,-1021.22 0,-461.53 -19.16,-1153.85 -59.57,-2076.94 -30.01,-684.87 -48.27,-1240.73 -55.7,-1669.01 -1.57,-90.04 -2.64,-174.41 -3.26,-253.19l1269.79 0z"/>
  <path class="fil1" d="M4500.65 10524.71l-1644.76 0c4.5,-399.52 21.1,-946.37 49.8,-1640.53 34.03,-823.15 51.06,-1440.97 51.06,-1851.63 0,-387.05 -4.25,-966.7 -12.76,-1738.97 -7.23,-655.76 -11.39,-1171.33 -12.48,-1548.94l1773.35 0c540.81,622.69 1230.05,1409.09 2068.47,2359.88l0 2018.62c-621.98,-707.11 -1323.99,-1500.19 -2106.14,-2378.92 -87.22,-92.67 -168.06,-172.63 -242.52,-239.86 33.37,1400.52 65.23,3640.37 75.98,5020.35z"/>
  <path class="fil0" d="M2882.52 9486.32l-356.13 -6780.09 409.11 0 1357.95 0c400.7,461.35 882.85,1012.56 1446.8,1653.9 197.21,224.3 404.45,459.62 621.68,705.97l0 14.31 0 1280.84 0 723.48c-49.27,-56.02 -99.05,-112.6 -149.37,-169.69 -360.57,-409.5 -747,-846.74 -1159.28,-1311.64 -214.82,-242.26 -436.66,-492.03 -665.52,-749.29 -43.74,-49.17 -87.72,-98.6 -131.96,-148.3 -87.24,-92.67 -168.08,-172.62 -242.56,-239.85 -29.76,148.98 -42.52,488.8 -42.52,1021.21 0,461.54 19.14,1153.87 59.57,2076.95 30,684.87 48.26,1240.72 55.71,1669.01 1.55,90.03 2.63,174.41 3.25,253.19l-1206.73 0z"/>
  <path class="fil2" d="M2870.42 9255.86l-352.17 -6704.77c-0.09,-25.69 -0.18,-50.79 -0.25,-75.31l415.38 0 1357.96 0c400.68,461.34 882.83,1012.55 1446.77,1653.9 197.24,224.31 404.45,459.62 621.69,705.98l0 14.3 0 613.32 0 667.52 0 723.46c-49.27,-56.01 -99.05,-112.59 -149.34,-169.68 -360.6,-409.49 -747.03,-846.72 -1159.3,-1311.65 -214.84,-242.24 -436.68,-492.01 -665.53,-749.27 -43.74,-49.16 -87.71,-98.6 -131.96,-148.31 -87.23,-92.67 -168.06,-172.63 -242.53,-239.85 -29.79,148.99 -42.57,488.8 -42.57,1021.21 0,461.55 19.19,1153.87 59.59,2076.95 29.99,684.88 48.27,1240.73 55.71,1669.02 1.56,90.01 2.64,174.41 3.26,253.18l-1204.73 0 -11.98 0z"/>
  <path class="fil2" d="M10810.39 4353.61l289.55 6780.07 -413.87 0 -1357.95 0c-400.68,-461.34 -882.85,-1012.55 -1446.79,-1653.9 -197.22,-224.3 -404.46,-459.63 -621.69,-705.97l0 -14.29 0 -684.68 0 -596.18 0 -723.49c49.28,56.04 99.06,112.61 149.36,169.71 360.59,409.49 747.01,846.73 1159.29,1311.65 214.83,242.24 436.67,492.01 665.53,749.28 43.73,49.15 87.72,98.59 131.97,148.29 87.2,92.68 168.07,172.64 242.52,239.88 29.78,-149.01 42.55,-488.83 42.55,-1021.24 0,-461.54 -19.16,-1153.85 -59.58,-2076.95 -29.99,-684.87 -48.25,-1240.73 -55.7,-1669.03 -1.56,-89.99 -2.63,-174.39 -3.25,-253.15l1267.73 0 10.33 0z"/>
 </g>
</svg>
