<?xml version="1.0" encoding="UTF-8"?>
<!DOCTYPE svg PUBLIC "-//W3C//DTD SVG 1.1//EN" "http://www.w3.org/Graphics/SVG/1.1/DTD/svg11.dtd">
<!-- Creator: CorelDRAW 2020 (64-Bit) -->
<svg xmlns="http://www.w3.org/2000/svg" xml:space="preserve" width="135.467mm" height="135.467mm" version="1.1" style="shape-rendering:geometricPrecision; text-rendering:geometricPrecision; image-rendering:optimizeQuality; fill-rule:evenodd; clip-rule:evenodd"
viewBox="0 0 13546.66 13546.66"
 xmlns:xlink="http://www.w3.org/1999/xlink"
 xmlns:xodm="http://www.corel.com/coreldraw/odm/2003">
 <defs>
  <style type="text/css">
   <![CDATA[
    .str0 {stroke:white;stroke-width:20;stroke-miterlimit:22.9256}
    .fil2 {fill:#323232}
    .fil0 {fill:#FF8381}
    .fil1 {fill:white}
   ]]>
  </style>
 </defs>
 <g id="Layer_x0020_1">
  <metadata id="CorelCorpID_0Corel-Layer"/>
  <rect class="fil0 str0" x="-0" y="-0.01" width="13546.67" height="13546.67"/>
  <path class="fil1" d="M11000.13 3989.06l0 0.05c0,-0.01 0,-0.04 0,-0.05zm0 0l0 0.05c-6.91,196.43 -15.04,407.75 -24.39,633.98 -35.74,864.3 -53.61,1513 -53.61,1944.2 0,406.39 4.46,1015.04 13.4,1825.93 7.59,688.54 11.95,1229.89 13.08,1626.36l-1861.99 0c-567.86,-653.81 -1291.56,-1479.52 -2171.91,-2477.85l0 -2119.55c653.09,742.46 1390.19,1575.2 2211.45,2497.86 91.59,97.3 176.48,181.26 254.67,251.86 -30.89,-1496.53 -68.52,-3822.4 -79.8,-5271.38l1726.99 0c-3.24,289.29 -12.54,652.13 -27.89,1088.54z"/>
  <path class="fil0" d="M11000.13 3989.06l304.03 7119.09 -425.88 0 -1425.86 0c-420.71,-484.41 -926.99,-1063.18 -1519.11,-1736.59 -207.08,-235.51 -424.68,-482.61 -652.79,-741.27l0 -15.02 0 -1344.9 0 -759.64c51.76,58.83 104.03,118.24 156.83,178.18 378.63,429.96 784.36,889.07 1217.26,1377.22 225.58,254.37 458.5,516.62 698.82,786.76 45.9,51.62 92.09,103.52 138.55,155.71 91.58,97.3 176.46,181.25 254.66,251.84 31.26,-156.44 44.67,-513.24 44.67,-1072.28 0,-484.61 -20.12,-1211.54 -62.55,-2180.79 -31.51,-719.11 -50.68,-1302.76 -58.49,-1752.46 -1.65,-94.54 -2.77,-183.13 -3.42,-265.85l1333.28 0z"/>
  <path class="fil1" d="M4385.23 10710.71l-1727 0c4.73,-419.5 22.16,-993.69 52.29,-1722.56 35.74,-864.3 53.62,-1513.01 53.62,-1944.21 0,-406.4 -4.47,-1015.04 -13.4,-1825.92 -7.59,-688.55 -11.96,-1229.9 -13.1,-1626.38l1862.01 0c567.86,653.82 1291.55,1479.54 2171.9,2477.87l0 2119.55c-653.08,-742.46 -1390.19,-1575.2 -2211.45,-2497.87 -91.58,-97.3 -176.47,-181.25 -254.65,-251.85 35.05,1470.55 68.5,3822.39 79.78,5271.37z"/>
  <path class="fil0" d="M2686.2 9620.4l-373.94 -7119.09 429.56 0 1425.85 0c420.74,484.41 927,1063.18 1519.14,1736.59 207.07,235.52 424.67,482.6 652.76,741.27l0 15.02 0 1344.89 0 759.65c-51.73,-58.82 -104,-118.23 -156.83,-178.18 -378.6,-429.96 -784.35,-889.07 -1217.24,-1377.22 -225.57,-254.37 -458.5,-516.62 -698.8,-786.75 -45.93,-51.63 -92.11,-103.53 -138.56,-155.72 -91.6,-97.3 -176.48,-181.25 -254.69,-251.84 -31.24,156.43 -44.64,513.24 -44.64,1072.27 0,484.62 20.1,1211.56 62.55,2180.8 31.49,719.11 50.67,1302.76 58.49,1752.46 1.63,94.53 2.76,183.13 3.42,265.85l-1267.07 0z"/>
  <path class="fil2" d="M2673.49 9378.41l-369.78 -7040.01c-0.09,-26.97 -0.19,-53.32 -0.26,-79.07l436.15 0 1425.85 0c420.72,484.41 926.98,1063.18 1519.12,1736.6 207.09,235.52 424.67,482.59 652.77,741.27l0 15.02 0 643.98 0 700.9 0 759.64c-51.73,-58.82 -104.01,-118.23 -156.81,-178.17 -378.62,-429.96 -784.37,-889.05 -1217.26,-1377.23 -225.58,-254.35 -458.52,-516.61 -698.8,-786.74 -45.94,-51.61 -92.1,-103.52 -138.56,-155.72 -91.6,-97.3 -176.46,-181.26 -254.66,-251.84 -31.28,156.44 -44.7,513.24 -44.7,1072.27 0,484.63 20.15,1211.56 62.57,2180.8 31.49,719.13 50.69,1302.76 58.49,1752.47 1.64,94.5 2.77,183.13 3.43,265.83l-1264.97 0 -12.58 0z"/>
  <path class="fil2" d="M11010.46 4231.05l304.03 7119.08 -434.56 0 -1425.85 0c-420.72,-484.41 -927,-1063.18 -1519.14,-1736.59 -207.07,-235.53 -424.67,-482.62 -652.77,-741.28l0 -15 0 -718.91 0 -625.99 0 -759.67c51.75,58.84 104.02,118.24 156.83,178.19 378.62,429.97 784.36,889.07 1217.26,1377.24 225.57,254.35 458.5,516.61 698.81,786.75 45.91,51.6 92.1,103.52 138.56,155.7 91.56,97.31 176.47,181.27 254.65,251.87 31.27,-156.46 44.67,-513.26 44.67,-1072.3 0,-484.62 -20.12,-1211.54 -62.55,-2180.8 -31.5,-719.11 -50.67,-1302.77 -58.48,-1752.48 -1.65,-94.49 -2.77,-183.11 -3.42,-265.81l1331.11 0 10.85 0z"/>
 </g>
</svg>
